<?xml version="1.0" encoding="UTF-8"?>
<svg version="1.1" xmlns="http://www.w3.org/2000/svg" width="540" height="90">
<path d="M0 0 C1.76730469 -0.00290039 1.76730469 -0.00290039 3.5703125 -0.00585938 C4.7975 0.01798828 6.0246875 0.04183594 7.2890625 0.06640625 C8.50851563 0.05544922 9.72796875 0.04449219 10.984375 0.03320312 C22.41930645 0.12682975 22.41930645 0.12682975 26.9140625 4.62890625 C31.41755633 10.86776894 33.32679683 18.30717883 35.6640625 25.56640625 C36.07872387 26.83551644 36.49408286 28.10439891 36.91015625 29.37304688 C37.91832546 32.45616901 38.91938975 35.54140891 39.9140625 38.62890625 C42.06758147 35.39862779 42.95092634 32.65603284 44.0859375 28.94921875 C44.506892 27.61429271 44.92879736 26.27966622 45.3515625 24.9453125 C46.01014395 22.85245432 46.66267558 20.75848415 47.29882812 18.65869141 C47.91800075 16.62433552 48.56231754 14.59934883 49.2109375 12.57421875 C49.58573242 11.36266113 49.96052734 10.15110352 50.34667969 8.90283203 C52.2725255 4.8801541 54.18588683 3.05587551 57.9140625 0.62890625 C61.0703125 -0.01806641 61.0703125 -0.01806641 64.4140625 -0.03515625 C65.6309375 -0.04160156 66.8478125 -0.04804688 68.1015625 -0.0546875 C69.3596875 -0.03535156 70.6178125 -0.01601562 71.9140625 0.00390625 C73.1721875 -0.01542969 74.4303125 -0.03476563 75.7265625 -0.0546875 C85.97224887 -0.00042009 85.97224887 -0.00042009 89.5390625 2.66796875 C95.84111975 10.52480986 98.19352558 20.16997837 101.1640625 29.62890625 C101.62700219 31.08612888 102.09053897 32.54316196 102.5546875 34 C103.68137403 37.5408091 104.79994977 41.08411785 105.9140625 44.62890625 C107.81871187 39.69555213 109.57081564 34.72839118 111.25390625 29.71484375 C111.68154007 28.44658067 112.10927625 27.17835211 112.53710938 25.91015625 C113.19735956 23.95225768 113.85495651 21.99365951 114.50463867 20.03222656 C115.14206573 18.11108227 115.79075459 16.1940433 116.44140625 14.27734375 C116.82031006 13.14474121 117.19921387 12.01213867 117.58959961 10.84521484 C120.98833483 2.59177008 120.98833483 2.59177008 124.9140625 0.62890625 C128.67850939 0.33395067 132.45191197 0.35090945 136.2265625 0.31640625 C137.79567383 0.27290039 137.79567383 0.27290039 139.39648438 0.22851562 C140.40904297 0.22013672 141.42160156 0.21175781 142.46484375 0.203125 C143.38950439 0.18854248 144.31416504 0.17395996 145.2668457 0.15893555 C148.86493082 0.79771761 150.38222297 2.00277497 152.9140625 4.62890625 C154.05467608 7.06172225 154.91019723 9.24498522 155.703125 11.78515625 C156.06792465 12.88277283 156.06792465 12.88277283 156.44009399 14.00256348 C156.98161089 15.63943328 157.51535421 17.27888876 158.04260254 18.92041016 C158.97468503 21.81732097 159.93026047 24.7057717 160.88964844 27.59375 C162.67734414 32.98762167 164.44413539 38.38805076 166.20263672 43.79150391 C167.30556454 47.17959904 168.41234805 50.56641836 169.51953125 53.953125 C170.22157839 56.10539563 170.9234097 58.25773666 171.625 60.41015625 C171.95615814 61.42348022 172.28731628 62.4368042 172.62850952 63.48083496 C173.07995834 64.8699408 173.07995834 64.8699408 173.54052734 66.28710938 C173.8066684 67.10409302 174.07280945 67.92107666 174.34701538 68.76281738 C174.9140625 70.62890625 174.9140625 70.62890625 174.9140625 71.62890625 C170.68512782 71.74524558 166.45660576 71.81620577 162.2265625 71.87890625 C161.02837891 71.91242188 159.83019531 71.9459375 158.59570312 71.98046875 C157.43876953 71.99335937 156.28183594 72.00625 155.08984375 72.01953125 C154.02677002 72.04047852 152.96369629 72.06142578 151.8684082 72.08300781 C148.19212752 71.51794029 146.56589816 70.18032052 143.9140625 67.62890625 C142.76953125 65.59375 142.76953125 65.59375 142.1015625 63.56640625 C141.86824219 62.89480469 141.63492188 62.22320312 141.39453125 61.53125 C140.9140625 59.62890625 140.9140625 59.62890625 140.9140625 56.62890625 C140.2540625 56.62890625 139.5940625 56.62890625 138.9140625 56.62890625 C138.8001416 57.17272949 138.6862207 57.71655273 138.56884766 58.27685547 C137.37071419 63.84787802 135.97864046 69.31178498 134.2890625 74.75390625 C134.07894531 75.51316406 133.86882812 76.27242188 133.65234375 77.0546875 C132.05452349 82.12754856 129.84540922 85.98647157 125.64794922 89.32958984 C120.14887617 91.94309822 114.08225385 91.5783548 108.11376953 91.43164062 C105.78601201 91.37883705 103.46487568 91.39053006 101.13671875 91.41015625 C99.64319413 91.3983453 98.14969316 91.38284664 96.65625 91.36328125 C95.96860565 91.3671283 95.2809613 91.37097534 94.57247925 91.37493896 C89.00423418 91.18591186 86.7031964 89.42300207 82.9140625 85.62890625 C81.41015625 83.078125 81.41015625 83.078125 80.3515625 80.31640625 C79.95453125 79.28386719 79.5575 78.25132813 79.1484375 77.1875 C76.90435285 70.71800281 74.87084232 64.19036368 72.9140625 57.62890625 C70.55275764 63.05154883 68.27888568 68.46616991 66.38671875 74.0703125 C66.13100098 74.82513916 65.8752832 75.57996582 65.61181641 76.35766602 C65.11288017 77.848226 64.62391703 79.34216914 64.14599609 80.83959961 C62.72273148 85.08522852 61.47436996 87.8829996 57.9140625 90.62890625 C54.7253418 91.14648438 54.7253418 91.14648438 50.98828125 91.16015625 C49.98955742 91.16589661 49.98955742 91.16589661 48.97065735 91.17175293 C47.56448858 91.17446855 46.158269 91.16713149 44.75219727 91.15039062 C42.61813259 91.12907178 40.48747258 91.15014517 38.35351562 91.17578125 C25.18656703 91.20981287 25.18656703 91.20981287 19.9140625 86.62890625 C17.00440408 82.00473488 15.03744123 77.59926474 13.3359375 72.3828125 C13.11963684 71.72683578 12.90333618 71.07085907 12.68048096 70.39500427 C12.00116819 68.32940591 11.33245121 66.2605619 10.6640625 64.19140625 C10.20122183 62.77776509 9.73768614 61.36435128 9.2734375 59.95117188 C8.14561233 56.5130038 7.02725273 53.0718446 5.9140625 49.62890625 C5.53894531 50.79808594 5.16382813 51.96726563 4.77734375 53.171875 C4.26119785 54.7203127 3.74422697 56.26847557 3.2265625 57.81640625 C2.98228516 58.58533203 2.73800781 59.35425781 2.48632812 60.14648438 C0.62099786 65.64802807 -1.63807321 69.9049741 -7.0859375 72.62890625 C-8.89935592 72.71361989 -10.71587911 72.73611708 -12.53125 72.7265625 C-14.14580078 72.72172852 -14.14580078 72.72172852 -15.79296875 72.71679688 C-16.92089844 72.70841797 -18.04882812 72.70003906 -19.2109375 72.69140625 C-20.34660156 72.68689453 -21.48226563 72.68238281 -22.65234375 72.67773438 C-25.46359388 72.6659224 -28.2747398 72.64945132 -31.0859375 72.62890625 C-30.45908393 66.38678143 -28.64512542 60.79057035 -26.62890625 54.8671875 C-26.28467117 53.84014206 -25.9404361 52.81309662 -25.58576965 51.75492859 C-24.48730542 48.48182396 -23.38054217 45.21159715 -22.2734375 41.94140625 C-21.54045905 39.76255695 -20.80803177 37.58352215 -20.07617188 35.40429688 C-18.40564295 30.43272502 -16.73440477 25.46142614 -15.04208374 20.4972229 C-14.36988834 18.4807225 -13.72373532 16.4554454 -13.09683228 14.42440796 C-8.57491809 -0.00579996 -8.57491809 -0.00579996 0 0 Z " fill="#FE4444" transform="translate(31.0859375,-0.62890625)"/>
<path d="M0 0 C1.76730469 -0.00290039 1.76730469 -0.00290039 3.5703125 -0.00585938 C4.7975 0.01798828 6.0246875 0.04183594 7.2890625 0.06640625 C8.50851563 0.05544922 9.72796875 0.04449219 10.984375 0.03320312 C22.41930645 0.12682975 22.41930645 0.12682975 26.9140625 4.62890625 C31.41755633 10.86776894 33.32679683 18.30717883 35.6640625 25.56640625 C36.07872387 26.83551644 36.49408286 28.10439891 36.91015625 29.37304688 C37.91832546 32.45616901 38.91938975 35.54140891 39.9140625 38.62890625 C42.04042678 35.43935984 42.96324007 32.70992484 44.12109375 29.0625 C44.54662245 27.75947019 44.97308335 26.45674451 45.40039062 25.15429688 C46.06763793 23.10730119 46.72885226 21.05911925 47.37426758 19.00512695 C48.00140758 17.01803327 48.65277878 15.04028507 49.30859375 13.0625 C49.68862549 11.87712646 50.06865723 10.69175293 50.46020508 9.47045898 C51.9140625 6.62890625 51.9140625 6.62890625 54.5769043 5.22680664 C55.3481665 5.02949951 56.11942871 4.83219238 56.9140625 4.62890625 C57.09717987 5.17948196 57.28029724 5.73005768 57.46896362 6.2973175 C58.98884608 10.86269512 60.51740572 15.42497983 62.05789185 19.98344421 C63.11282189 23.10752272 64.16262995 26.23331606 65.21240234 29.35913086 C65.76549662 31.00322239 66.32019605 32.64677476 66.87646484 34.28979492 C67.68754934 36.68657108 68.49275514 39.08525461 69.296875 41.484375 C69.5447879 42.21262985 69.79270081 42.9408847 70.04812622 43.69120789 C72.43390968 50.84621282 73.35578368 55.50023735 70.74609375 62.85546875 C70.510009 63.52556976 70.27392426 64.19567078 70.03068542 64.88607788 C69.53037369 66.29527917 69.02318487 67.70205575 68.50952148 69.10644531 C67.72863905 71.24821078 66.9752858 73.39826882 66.22460938 75.55078125 C65.73338588 76.92375599 65.24059908 78.29617262 64.74609375 79.66796875 C64.29983643 80.90756348 63.8535791 82.1471582 63.39379883 83.42431641 C61.8725369 86.71883612 60.86933467 88.53526863 57.9140625 90.62890625 C54.7253418 91.14648438 54.7253418 91.14648438 50.98828125 91.16015625 C49.98955742 91.16589661 49.98955742 91.16589661 48.97065735 91.17175293 C47.56448858 91.17446855 46.158269 91.16713149 44.75219727 91.15039062 C42.61813259 91.12907178 40.48747258 91.15014517 38.35351562 91.17578125 C25.18656703 91.20981287 25.18656703 91.20981287 19.9140625 86.62890625 C17.00440408 82.00473488 15.03744123 77.59926474 13.3359375 72.3828125 C13.11963684 71.72683578 12.90333618 71.07085907 12.68048096 70.39500427 C12.00116819 68.32940591 11.33245121 66.2605619 10.6640625 64.19140625 C10.20122183 62.77776509 9.73768614 61.36435128 9.2734375 59.95117188 C8.14561233 56.5130038 7.02725273 53.0718446 5.9140625 49.62890625 C5.53894531 50.79808594 5.16382813 51.96726563 4.77734375 53.171875 C4.26119785 54.7203127 3.74422697 56.26847557 3.2265625 57.81640625 C2.98228516 58.58533203 2.73800781 59.35425781 2.48632812 60.14648438 C0.62099786 65.64802807 -1.63807321 69.9049741 -7.0859375 72.62890625 C-8.89935592 72.71361989 -10.71587911 72.73611708 -12.53125 72.7265625 C-14.14580078 72.72172852 -14.14580078 72.72172852 -15.79296875 72.71679688 C-16.92089844 72.70841797 -18.04882812 72.70003906 -19.2109375 72.69140625 C-20.34660156 72.68689453 -21.48226563 72.68238281 -22.65234375 72.67773438 C-25.46359388 72.6659224 -28.2747398 72.64945132 -31.0859375 72.62890625 C-30.45908393 66.38678143 -28.64512542 60.79057035 -26.62890625 54.8671875 C-26.28467117 53.84014206 -25.9404361 52.81309662 -25.58576965 51.75492859 C-24.48730542 48.48182396 -23.38054217 45.21159715 -22.2734375 41.94140625 C-21.54045905 39.76255695 -20.80803177 37.58352215 -20.07617188 35.40429688 C-18.40564295 30.43272502 -16.73440477 25.46142614 -15.04208374 20.4972229 C-14.36988834 18.4807225 -13.72373532 16.4554454 -13.09683228 14.42440796 C-8.57491809 -0.00579996 -8.57491809 -0.00579996 0 0 Z " fill="#FE4444" transform="translate(31.0859375,-0.62890625)"/>
<path d="M0 0 C1.56911133 -0.04350586 1.56911133 -0.04350586 3.16992188 -0.08789062 C4.18248047 -0.09626953 5.19503906 -0.10464844 6.23828125 -0.11328125 C7.16294189 -0.12786377 8.08760254 -0.14244629 9.0402832 -0.1574707 C12.63836832 0.48131136 14.15566047 1.68636872 16.6875 4.3125 C17.82811358 6.745316 18.68363473 8.92857897 19.4765625 11.46875 C19.71976227 12.20049438 19.96296204 12.93223877 20.21353149 13.68615723 C20.75504839 15.32302703 21.28879171 16.96248251 21.81604004 18.60400391 C22.74812253 21.50091472 23.70369797 24.38936545 24.66308594 27.27734375 C26.45078164 32.67121542 28.21757289 38.07164451 29.97607422 43.47509766 C31.07900204 46.86319279 32.18578555 50.25001211 33.29296875 53.63671875 C33.99501589 55.78898938 34.6968472 57.94133041 35.3984375 60.09375 C35.72959564 61.10707397 36.06075378 62.12039795 36.40194702 63.16442871 C36.7029129 64.09049927 37.00387878 65.01656982 37.31396484 65.97070312 C37.5801059 66.78768677 37.84624695 67.60467041 38.12045288 68.44641113 C38.6875 70.3125 38.6875 70.3125 38.6875 71.3125 C34.45856532 71.42883933 30.23004326 71.49979952 26 71.5625 C24.80181641 71.59601563 23.60363281 71.62953125 22.36914062 71.6640625 C20.63374023 71.68339844 20.63374023 71.68339844 18.86328125 71.703125 C17.80020752 71.72407227 16.73713379 71.74501953 15.6418457 71.76660156 C11.96212361 71.20100508 10.33783818 69.8717633 7.6875 67.3125 C6.5 65.11328125 6.5 65.11328125 5.6875 62.625 C5.35878906 61.635 5.03007812 60.645 4.69140625 59.625 C3.42848466 55.45785016 2.2336882 51.272224 1.04614258 47.08300781 C-1.80678475 37.26936281 -5.27787404 27.64791122 -8.65454102 18.00512695 C-8.89481018 17.31570007 -9.13507935 16.62627319 -9.38262939 15.91595459 C-10.04647113 14.01213829 -10.71416708 12.1096672 -11.38208008 10.20727539 C-12.3125 7.3125 -12.3125 7.3125 -12.3125 5.3125 C-13.3025 5.3125 -14.2925 5.3125 -15.3125 5.3125 C-12.24259012 -1.4851576 -6.72634744 0.06148398 0 0 Z " fill="#FE4445" transform="translate(167.3125,-0.3125)"/>
<path d="M0 0 C1.32 0 2.64 0 4 0 C6.12932939 5.9733697 8.24585691 11.95116487 10.35375977 17.93212891 C11.07155706 19.96408222 11.79222342 21.99502449 12.51586914 24.02490234 C13.55860586 26.95145455 14.59079489 29.88154942 15.62109375 32.8125 C15.94403915 33.71178223 16.26698456 34.61106445 16.59971619 35.53759766 C19.27934334 43.21573501 20.9542455 49.5173627 18.3046875 57.51171875 C17.91796875 58.68154297 17.53125 59.85136719 17.1328125 61.05664062 C16.71773437 62.25482422 16.30265625 63.45300781 15.875 64.6875 C15.483125 65.89728516 15.09125 67.10707031 14.6875 68.35351562 C10.97646359 79.32290267 10.97646359 79.32290267 6 83 C2.1875 82.8125 2.1875 82.8125 -1 82 C-2.91768696 76.76323945 -4.80440957 71.51668315 -6.6640625 66.2590332 C-7.30000272 64.47449058 -7.94410011 62.69283194 -8.59667969 60.91430664 C-9.53693835 58.34728547 -10.44672163 55.77109245 -11.3515625 53.19140625 C-11.6462442 52.40665421 -11.9409259 51.62190216 -12.24453735 50.81336975 C-14.26274023 44.92269766 -13.88125265 40.88014981 -12 35 C-11.79894653 34.32817184 -11.59789307 33.65634369 -11.39074707 32.9641571 C-10.77101868 30.95466215 -10.10958428 28.96388451 -9.43359375 26.97265625 C-9.19463882 26.25766464 -8.9556839 25.54267303 -8.70948792 24.80601501 C-8.20989508 23.3138938 -7.70816426 21.8224868 -7.2043457 20.33178711 C-6.43159608 18.04502883 -5.66545717 15.75613581 -4.90039062 13.46679688 C-4.4118355 12.0102901 -3.92291654 10.5539053 -3.43359375 9.09765625 C-3.20441757 8.41437759 -2.97524139 7.73109894 -2.73912048 7.02711487 C-1.11733322 2.23466644 -1.11733322 2.23466644 0 0 Z " fill="#B30023" transform="translate(151,5)"/>
<path d="M0 0 C0.99 0.33 1.98 0.66 3 1 C4.03515625 3.5078125 4.03515625 3.5078125 5.0625 7.125 C6.76146584 13.02165979 8.61302676 18.84433958 10.6171875 24.64453125 C11.3220705 26.71525879 12.02462601 28.78676044 12.72628784 30.85858154 C13.1974159 32.23571888 13.67595152 33.61034601 14.16213989 34.98223877 C16.92922856 42.81244781 19.10317471 49.00076214 16 57 C15.50777954 58.48270386 15.50777954 58.48270386 15.00561523 59.99536133 C13.88862558 63.3299587 12.70332648 66.63315778 11.5 69.9375 C11.09652344 71.07251953 10.69304687 72.20753906 10.27734375 73.37695312 C9.88675781 74.45783203 9.49617188 75.53871094 9.09375 76.65234375 C8.73990234 77.63195068 8.38605469 78.61155762 8.02148438 79.62084961 C7 82 7 82 5 84 C2.49926758 83.87744141 2.49926758 83.87744141 0 83 C-1.1809082 81.29052734 -1.1809082 81.29052734 -1.98828125 78.9609375 C-2.30877441 78.05569336 -2.62926758 77.15044922 -2.95947266 76.21777344 C-3.30284668 75.1559082 -3.6462207 74.09404297 -4 73 C-4.40653809 71.76024414 -4.81307617 70.52048828 -5.23193359 69.24316406 C-6.35596436 65.76848436 -7.44388375 62.28346027 -8.51928711 58.79345703 C-9.19301318 56.60710886 -9.87236961 54.4225717 -10.55273438 52.23828125 C-11.7146682 48.49595657 -12.87597337 44.75393711 -14 41 C-14.20436172 40.34829834 -14.40872345 39.69659668 -14.61927795 39.02514648 C-15.27915242 35.51512529 -13.72794319 32.31240539 -12.578125 29.0234375 C-12.31747253 28.25697906 -12.05682007 27.49052063 -11.78826904 26.70083618 C-11.23514889 25.08359721 -10.67668793 23.46817639 -10.11328125 21.85449219 C-9.25245732 19.38205785 -8.41426465 16.90275054 -7.578125 14.421875 C-7.03780127 12.85109991 -6.49617818 11.28077105 -5.953125 9.7109375 C-5.70298645 8.96822601 -5.4528479 8.22551453 -5.19512939 7.46029663 C-3.34499618 2.22999745 -3.34499618 2.22999745 0 0 Z " fill="#B30023" transform="translate(86,4)"/>
<path d="M0 0 C0.99 0.33 1.98 0.66 3 1 C3.9457664 3.37051771 4.68994231 5.61566193 5.375 8.0625 C5.80565823 9.51962922 6.23665794 10.97665756 6.66796875 12.43359375 C6.88630371 13.18624512 7.10463867 13.93889648 7.32958984 14.71435547 C8.40076349 18.36633206 9.54565942 21.99463119 10.6875 25.625 C10.88972168 26.27476807 11.09194336 26.92453613 11.30029297 27.59399414 C12.20156939 30.48730908 13.12771213 33.35707268 14.1484375 36.2109375 C16.71219041 44.60781628 12.61624986 54.43875029 9 62 C4.98522167 66.50738916 4.98522167 66.50738916 2 68 C0.18658158 68.08471364 -1.62994161 68.10721083 -3.4453125 68.09765625 C-5.05986328 68.09282227 -5.05986328 68.09282227 -6.70703125 68.08789062 C-7.83496094 68.07951172 -8.96289062 68.07113281 -10.125 68.0625 C-11.26066406 68.05798828 -12.39632813 68.05347656 -13.56640625 68.04882812 C-16.37765638 68.03701615 -19.1888023 68.02054507 -22 68 C-21.37314643 61.75787518 -19.55918792 56.1616641 -17.54296875 50.23828125 C-17.19873367 49.21123581 -16.8544986 48.18419037 -16.49983215 47.12602234 C-15.40136792 43.85291771 -14.29460467 40.5826909 -13.1875 37.3125 C-12.45452155 35.1336507 -11.72209427 32.9546159 -10.99023438 30.77539062 C-9.32167625 25.80968396 -7.64793899 20.8457642 -5.96786499 15.88394165 C-5.27197136 13.81039147 -4.58562441 11.73362836 -3.90542603 9.65487671 C-3.54774139 8.56373566 -3.19005676 7.4725946 -2.8215332 6.34838867 C-2.49667435 5.34934006 -2.17181549 4.35029144 -1.83711243 3.32096863 C-1 1 -1 1 0 0 Z " fill="#B30023" transform="translate(22,4)"/>
<path d="M0 0 C1.65 0 3.3 0 5 0 C6.98 5.94 8.96 11.88 11 18 C12.84322075 13.69915159 14.39327371 10.02402246 15.625 5.625 C16.89495798 1.10504202 16.89495798 1.10504202 18 0 C19.65 0 21.3 0 23 0 C23 12.87 23 25.74 23 39 C21.02 39 19.04 39 17 39 C17 32.73 17 26.46 17 20 C15.68 23.63 14.36 27.26 13 31 C11.68 30.67 10.36 30.34 9 30 C7.53257498 27.10347822 6.88549685 24.14351383 6 21 C5.67 26.94 5.34 32.88 5 39 C3.35 39 1.7 39 0 39 C0 26.13 0 13.26 0 0 Z " fill="#2E2E2E" transform="translate(302,33)"/>
<path d="M0 0 C1.65 0 3.3 0 5 0 C8.60075388 6.801424 11.29768544 13.79382785 14 21 C14.33 14.07 14.66 7.14 15 0 C16.65 0 18.3 0 20 0 C20 12.87 20 25.74 20 39 C18.35 39 16.7 39 15 39 C13.68608882 35.72973178 12.37411484 32.45868982 11.0625 29.1875 C10.68931641 28.25873047 10.31613281 27.32996094 9.93164062 26.37304688 C9.57392578 25.48037109 9.21621094 24.58769531 8.84765625 23.66796875 C8.51773682 22.84578857 8.18781738 22.0236084 7.84790039 21.17651367 C7.18283658 19.46933143 6.57937734 17.73813203 6 16 C5.67 23.59 5.34 31.18 5 39 C3.35 39 1.7 39 0 39 C0 26.13 0 13.26 0 0 Z " fill="#2E2E2E" transform="translate(220,33)"/>
<path d="M0 0 C1.98 0 3.96 0 6 0 C7.20465156 4.65798604 8.28547412 9.23649415 9 14 C10.29925791 9.66914029 11.343621 5.48525648 12 1 C13.98 1 15.96 1 18 1 C18.99 5.62 19.98 10.24 21 15 C21.99 10.05 22.98 5.1 24 0 C25.65 0 27.3 0 29 0 C25.38297872 25.61702128 25.38297872 25.61702128 23 28 C21.35 28 19.7 28 18 28 C17.01 24.04 16.02 20.08 15 16 C14.01 19.96 13.02 23.92 12 28 C10.02 28 8.04 28 6 28 C4.99645963 23.70915318 3.99776629 19.41719284 3 15.125 C2.71382813 13.90167969 2.42765625 12.67835937 2.1328125 11.41796875 C1.86210937 10.25136719 1.59140625 9.08476563 1.3125 7.8828125 C1.06113281 6.80402832 0.80976563 5.72524414 0.55078125 4.61376953 C0 2 0 2 0 0 Z " fill="#2E2E2E" transform="translate(262,44)"/>
<path d="M0 0 C1.32 0 2.64 0 4 0 C4 13.2 4 26.4 4 40 C1.44909127 41.27545437 -0.52665846 41.27572804 -3.375 41.375 C-4.33148438 41.42398438 -5.28796875 41.47296875 -6.2734375 41.5234375 C-9 41 -9 41 -11.32421875 38.97265625 C-13.41080588 35.27127441 -13.55648596 32.19630256 -13.4375 28.0625 C-13.44458984 27.37220703 -13.45167969 26.68191406 -13.45898438 25.97070312 C-13.401028 21.26732056 -12.51297358 17.96754182 -10 14 C-6.77208445 11.8480563 -5.71599191 11.79913557 -2 12 C-1.93941406 11.21753906 -1.87882812 10.43507813 -1.81640625 9.62890625 C-1.73261719 8.61699219 -1.64882813 7.60507812 -1.5625 6.5625 C-1.48128906 5.55316406 -1.40007812 4.54382812 -1.31640625 3.50390625 C-1 1 -1 1 0 0 Z M-5 17 C-7.87174697 22.86315005 -9.02937112 27.35760989 -7.1875 33.875 C-6.12779105 36.33178312 -6.12779105 36.33178312 -3 37 C-2.34 36.67 -1.68 36.34 -1 36 C-1 29.73 -1 23.46 -1 17 C-2.32 17 -3.64 17 -5 17 Z " fill="#2E2E2E" transform="translate(361,31)"/>
<path d="M0 0 C0.80824219 0.10183594 1.61648438 0.20367187 2.44921875 0.30859375 C3.06410156 0.39238281 3.67898438 0.47617187 4.3125 0.5625 C4.6425 1.8825 4.9725 3.2025 5.3125 4.5625 C1.6916799 5.57632963 -1.96561418 6.06147691 -5.6875 6.5625 C-5.20523426 11.29042659 -3.24868839 13.69960271 -0.1875 17.25 C4.36581123 22.57420412 5.76212766 25.07769061 5.640625 32.07421875 C5.3125 34.5625 5.3125 34.5625 3.4375 37.6875 C-0.87955226 40.27773135 -4.75737261 40.35633407 -9.6875 39.5625 C-10.6775 38.9025 -11.6675 38.2425 -12.6875 37.5625 C-12.0275 35.9125 -11.3675 34.2625 -10.6875 32.5625 C-10.0275 32.8925 -9.3675 33.2225 -8.6875 33.5625 C-7.31407169 33.6314472 -5.93747898 33.64717708 -4.5625 33.625 C-3.28375 33.604375 -2.005 33.58375 -0.6875 33.5625 C-1.06854419 26.10376274 -3.26352529 22.87716946 -8.18164062 17.49609375 C-10.76843489 14.45763699 -12.01774502 12.24868274 -12.109375 8.30859375 C-11.6875 4.5625 -11.6875 4.5625 -9.875 2.125 C-6.41153307 -0.34890495 -4.08629698 -0.53299526 0 0 Z " fill="#2E2E2E" transform="translate(417.6875,32.4375)"/>
<path d="M0 0 C3.03764389 3.03764389 2.97544731 5.30024833 3.125 9.5625 C3 13 3 13 2 16 C-1.49029418 17.47666292 -5.27436386 17.07164685 -9 17 C-8.34 18.65 -7.68 20.3 -7 22 C-4.03 22 -1.06 22 2 22 C2 23.65 2 25.3 2 27 C-1.69431608 28.84715804 -5.96714833 28.47560286 -10 28 C-13.34516977 25.71549381 -14.2455949 23.8628335 -15 20 C-15.46598074 13.53045342 -15.68614746 6.50367061 -11.5625 1.125 C-7.70146405 -1.65494588 -4.43137237 -0.88627447 0 0 Z M-7 4 C-9.1519437 7.22791555 -9.20086443 8.28400809 -9 12 C-7.02 12 -5.04 12 -3 12 C-2.06934867 9.39417629 -1.85082593 8.35801776 -2.9375 5.75 C-3.288125 5.1725 -3.63875 4.595 -4 4 C-4.99 4 -5.98 4 -7 4 Z " fill="#2E2E2E" transform="translate(440,44)"/>
<path d="M0 0 C1.703125 1.1328125 1.703125 1.1328125 3 3 C3.29296875 6.13671875 3.29296875 6.13671875 3.1875 9.6875 C3.16042969 10.86699219 3.13335937 12.04648437 3.10546875 13.26171875 C3.07066406 14.16535156 3.03585937 15.06898437 3 16 C-0.63 16.66 -4.26 17.32 -8 18 C-7.67 19.32 -7.34 20.64 -7 22 C-3.7 22 -0.4 22 3 22 C2.125 26.875 2.125 26.875 1 28 C-0.7872057 28.15135944 -2.58161876 28.22175778 -4.375 28.25 C-5.35210937 28.27578125 -6.32921875 28.3015625 -7.3359375 28.328125 C-10 28 -10 28 -11.7890625 26.671875 C-15.52922705 21.50803491 -14.38072693 14.03724129 -14 8 C-13.21585764 4.44829638 -12.07615522 1.92241876 -9.25 -0.5 C-5.91053625 -1.24210306 -3.30785235 -0.78185601 0 0 Z M-6 4 C-8.5654594 6.5654594 -8.54046087 8.47686668 -9 12 C-6.69 12 -4.38 12 -2 12 C-2 9.69 -2 7.38 -2 5 C-3.89179203 4.3185177 -3.89179203 4.3185177 -6 4 Z " fill="#2E2E2E" transform="translate(342,44)"/>
<path d="M0 0 C1.703125 1.1328125 1.703125 1.1328125 3 3 C3.29296875 6.13671875 3.29296875 6.13671875 3.1875 9.6875 C3.16042969 10.86699219 3.13335938 12.04648437 3.10546875 13.26171875 C3.07066406 14.16535156 3.03585937 15.06898437 3 16 C-1.07787895 16.89445704 -4.81998005 17.08196118 -9 17 C-8.34 18.65 -7.68 20.3 -7 22 C-3.7 22 -0.4 22 3 22 C2.125 26.875 2.125 26.875 1 28 C-0.7872057 28.15135944 -2.58161876 28.22175778 -4.375 28.25 C-5.35210938 28.27578125 -6.32921875 28.3015625 -7.3359375 28.328125 C-10 28 -10 28 -11.7890625 26.671875 C-15.52922705 21.50803491 -14.38072693 14.03724129 -14 8 C-13.21585764 4.44829638 -12.07615522 1.92241876 -9.25 -0.5 C-5.91053625 -1.24210306 -3.30785235 -0.78185601 0 0 Z M-6 4 C-8.5654594 6.5654594 -8.54046087 8.47686668 -9 12 C-6.69 12 -4.38 12 -2 12 C-2 9.69 -2 7.38 -2 5 C-3.89179203 4.3185177 -3.89179203 4.3185177 -6 4 Z " fill="#2E2E2E" transform="translate(518,44)"/>
<path d="M0 0 C2.29338147 2.27238942 2.95441248 3.56479118 3.29296875 6.796875 C3.25816406 7.77140625 3.22335937 8.7459375 3.1875 9.75 C3.16042969 10.73484375 3.13335937 11.7196875 3.10546875 12.734375 C3.07066406 13.48203125 3.03585937 14.2296875 3 15 C-1.20961305 16.84670417 -4.38820072 17.18085487 -9 17 C-8.34 18.65 -7.68 20.3 -7 22 C-4.03 22 -1.06 22 2 22 C2.33 23.32 2.66 24.64 3 26 C-0.21830065 28.14553377 -1.26786507 28.29583868 -5 28.3125 C-6.299375 28.33763672 -6.299375 28.33763672 -7.625 28.36328125 C-10.45006192 27.93115829 -11.2697724 27.22226107 -13 25 C-14.61282972 21.77434056 -14.26787069 18.29059192 -14.3125 14.75 C-14.34150391 13.99847656 -14.37050781 13.24695312 -14.40039062 12.47265625 C-14.46026778 7.1942546 -13.56936902 4.14175432 -10 0 C-6.20519658 -1.26493447 -3.87641726 -0.89988258 0 0 Z M-6 4 C-8.80255323 6.9063515 -9 7.78825048 -9 12 C-6.69 12 -4.38 12 -2 12 C-1.79029441 7.85906302 -1.79029441 7.85906302 -3 4 C-3.99 4 -4.98 4 -6 4 Z " fill="#2E2E2E" transform="translate(258,44)"/>
<path d="M0 0 C2.19042969 1.15942383 2.19042969 1.15942383 4 3 C4.45410156 5.63549805 4.45410156 5.63549805 4.390625 8.76171875 C4.37128906 10.43911133 4.37128906 10.43911133 4.3515625 12.15039062 C4.31804687 13.31763672 4.28453125 14.48488281 4.25 15.6875 C4.23195313 16.86634766 4.21390625 18.04519531 4.1953125 19.25976562 C4.14811859 22.17398926 4.08229077 25.08659031 4 28 C1.41991408 29.29004296 -0.55741574 29.20410224 -3.4375 29.25 C-4.88962891 29.28867188 -4.88962891 29.28867188 -6.37109375 29.328125 C-9 29 -9 29 -10.82421875 27.79296875 C-12.3690221 25.43727195 -12.40029165 23.86565781 -12.375 21.0625 C-12.38273437 20.20785156 -12.39046875 19.35320313 -12.3984375 18.47265625 C-11.92193399 15.51553152 -11.06519222 14.14741299 -9 12 C-3.77333333 10.61333333 -3.77333333 10.61333333 -1 12 C-1 10.02 -1 8.04 -1 6 C-4.63 6.33 -8.26 6.66 -12 7 C-12 5.35 -12 3.7 -12 2 C-7.87484127 -0.00007696 -4.5659292 -0.41508447 0 0 Z M-6 16 C-6.67673447 19.40320934 -6.67673447 19.40320934 -7 23 C-6.34 23.66 -5.68 24.32 -5 25 C-2.89179203 24.6814823 -2.89179203 24.6814823 -1 24 C-1 21.36 -1 18.72 -1 16 C-2.65 16 -4.3 16 -6 16 Z " fill="#2E2E2E" transform="translate(390,43)"/>
<path d="M0 0 C0.80824219 0.10183594 1.61648438 0.20367187 2.44921875 0.30859375 C3.06410156 0.39238281 3.67898438 0.47617187 4.3125 0.5625 C4.6425 2.2125 4.9725 3.8625 5.3125 5.5625 C2.3425 5.5625 -0.6275 5.5625 -3.6875 5.5625 C-2.64295051 9.74069796 -2.34449677 10.21624433 0.8125 12.6875 C4.22436441 15.38622881 4.22436441 15.38622881 5.3125 17.5625 C5.65429024 21.25383463 5.77672538 23.70036716 4 27 C-0.28032511 29.48856111 -4.84629793 29.0506212 -9.6875 28.5625 C-10.6875 27.5625 -10.6875 27.5625 -10.75 25 C-10.729375 24.195625 -10.70875 23.39125 -10.6875 22.5625 C-9.57375 22.748125 -8.46 22.93375 -7.3125 23.125 C-3.86181139 23.87930657 -3.86181139 23.87930657 -1.6875 22.5625 C-2.01788474 19.48939754 -2.26703247 17.96607771 -4.53515625 15.7890625 C-5.63150391 14.99628906 -5.63150391 14.99628906 -6.75 14.1875 C-10.60265628 11.02528391 -10.60265628 11.02528391 -11.375 6.8125 C-10.68349046 3.54354579 -10.41998766 2.38415844 -7.6875 0.5625 C-4.59271121 -0.46909626 -3.16118607 -0.41232862 0 0 Z " fill="#2E2E2E" transform="translate(534.6875,43.4375)"/>
<path d="M0 0 C1.65 0 3.3 0 5 0 C6.32 4.62 7.64 9.24 9 14 C9.99 9.38 10.98 4.76 12 0 C13.65 0 15.3 0 17 0 C16.35227461 5.89699986 15.31464049 11.5924871 14 17.375 C13.82210938 18.18066406 13.64421875 18.98632812 13.4609375 19.81640625 C12.13245631 25.73508739 12.13245631 25.73508739 11 28 C9.35 28 7.7 28 6 28 C4.07766705 23.62712549 2.96157993 19.19455001 1.875 14.5625 C1.69324219 13.82451172 1.51148438 13.08652344 1.32421875 12.32617188 C0.33179394 8.12888648 -0.20663984 4.3463246 0 0 Z " fill="#2E2E2E" transform="translate(459,44)"/>
<path d="M0 0 C0.33 1.32 0.66 2.64 1 4 C-1.6739124 4.89130413 -4.23723823 5.47731534 -7 6 C-8.02232879 9.06698637 -8.1659049 11.28664878 -8.1875 14.5 C-8.20167969 15.4590625 -8.21585937 16.418125 -8.23046875 17.40625 C-8.18755111 20.23746139 -8.18755111 20.23746139 -6 23 C-2.91634129 23.2502157 -2.91634129 23.2502157 0 23 C0 24.32 0 25.64 0 27 C-1.65892472 28.65892472 -3.60047418 28.24986813 -5.875 28.3125 C-6.75929688 28.34988281 -7.64359375 28.38726562 -8.5546875 28.42578125 C-11 28 -11 28 -12.79296875 26.53515625 C-14.59277573 22.75497913 -14.47424601 19.26059691 -14.4375 15.125 C-14.45748047 14.33480469 -14.47746094 13.54460938 -14.49804688 12.73046875 C-14.4935946 7.37883357 -13.62967344 4.18757985 -10 0 C-6.30581799 -1.231394 -3.7943739 -0.64432764 0 0 Z " fill="#2E2E2E" transform="translate(502,44)"/>
<path d="M0 0 C0.66 0.66 1.32 1.32 2 2 C1.625 4.125 1.625 4.125 1 6 C-0.98 6 -2.96 6 -5 6 C-5 13.59 -5 21.18 -5 29 C-6.65 29 -8.3 29 -10 29 C-10 20.09 -10 11.18 -10 2 C-3.93617021 -0.42553191 -3.93617021 -0.42553191 0 0 Z " fill="#2E2E2E" transform="translate(456,43)"/>
<path d="M0 0 C1.2065625 0.0309375 1.2065625 0.0309375 2.4375 0.0625 C2.46636338 4.54165328 2.48425187 9.02078291 2.5 13.5 C2.50837891 14.77939453 2.51675781 16.05878906 2.52539062 17.37695312 C2.52861328 18.59189453 2.53183594 19.80683594 2.53515625 21.05859375 C2.54039307 22.18450928 2.54562988 23.3104248 2.55102539 24.47045898 C2.4375 27.0625 2.4375 27.0625 1.4375 28.0625 C-0.22867115 28.10313832 -1.89638095 28.105221 -3.5625 28.0625 C-3.59136338 23.58334672 -3.60925187 19.10421709 -3.625 14.625 C-3.63337891 13.34560547 -3.64175781 12.06621094 -3.65039062 10.74804688 C-3.65361328 9.53310547 -3.65683594 8.31816406 -3.66015625 7.06640625 C-3.66539307 5.94049072 -3.67062988 4.8145752 -3.67602539 3.65454102 C-3.52395811 0.18250162 -3.47522838 0.08476167 0 0 Z " fill="#2E2E2E" transform="translate(372.5625,43.9375)"/>
<path d="M0 0 C1.65 0 3.3 0 5 0 C5 9.24 5 18.48 5 28 C3.35 28 1.7 28 0 28 C0 18.76 0 9.52 0 0 Z " fill="#2E2E2E" transform="translate(479,44)"/>
<path d="M0 0 C1.32 0.66 2.64 1.32 4 2 C3.67 3.65 3.34 5.3 3 7 C1.0625 7.5625 1.0625 7.5625 -1 8 C-2 7 -2 7 -2.1875 4.5625 C-2 2 -2 2 0 0 Z " fill="#2E2E2E" transform="translate(371,33)"/>
<path d="M0 0 C0.99 0.33 1.98 0.66 3 1 C3 2.98 3 4.96 3 7 C1.0625 7.5625 1.0625 7.5625 -1 8 C-2 7 -2 7 -2.0625 3.9375 C-2.041875 2.968125 -2.02125 1.99875 -2 1 C-1.34 0.67 -0.68 0.34 0 0 Z " fill="#2E2E2E" transform="translate(481,33)"/>
</svg>
